<?xml version="1.0" standalone="no"?>
<!DOCTYPE svg PUBLIC "-//W3C//DTD SVG 20010904//EN"
 "http://www.w3.org/TR/2001/REC-SVG-20010904/DTD/svg10.dtd">
<svg version="1.0" xmlns="http://www.w3.org/2000/svg"
 width="360.000000pt" height="360.000000pt" viewBox="0 0 360.000000 360.000000"
 preserveAspectRatio="xMidYMid meet">

<g transform="translate(0.000000,360.000000) scale(0.100000,-0.100000)"
fill="#000000" stroke="none">
<path d="M0 1800 l0 -1800 1800 0 1800 0 0 1800 0 1800 -1800 0 -1800 0 0
-1800z m2123 280 l-45 -80 -232 0 -231 0 -45 -79 c-25 -43 -48 -77 -52 -75 -4
3 -25 38 -47 78 l-41 73 46 82 46 81 323 0 324 0 -46 -80z m-111 -192 c-11
-18 -32 -54 -47 -80 l-27 -48 -94 0 c-87 0 -94 -2 -105 -22 -6 -13 -48 -85
-92 -161 l-79 -139 -44 74 c-24 40 -44 78 -44 83 0 6 21 46 46 90 25 44 66
115 91 158 l45 77 185 0 185 0 -20 -32z"/>
</g>
</svg>
